<?xml version="1.0" encoding="UTF-8"?>
<!DOCTYPE svg PUBLIC "-//W3C//DTD SVG 1.1//EN" "http://www.w3.org/Graphics/SVG/1.1/DTD/svg11.dtd">
<!-- Creator: CorelDRAW 2021.5 -->
<svg xmlns="http://www.w3.org/2000/svg" xml:space="preserve" width="36.2862mm" height="36.2862mm" version="1.1" style="shape-rendering:geometricPrecision; text-rendering:geometricPrecision; image-rendering:optimizeQuality; fill-rule:evenodd; clip-rule:evenodd"
viewBox="0 0 1102.15 1102.15"
 xmlns:xlink="http://www.w3.org/1999/xlink"
 xmlns:xodm="http://www.corel.com/coreldraw/odm/2003">
 <defs>
  <style type="text/css">
   <![CDATA[
    .fil0 {fill:white}
    .fil1 {fill:#E6E6E6;fill-rule:nonzero}
   ]]>
  </style>
 </defs>
 <g id="Layer_x0020_1">
  <metadata id="CorelCorpID_0Corel-Layer"/>
  <g id="Minimize_x0020_deactive">
   <rect class="fil0" x="110.22" y="107.13" width="881.72" height="887.89"/>
   <path class="fil1" d="M881.72 0l-661.29 0c-121.74,0 -220.43,98.69 -220.43,220.43l0 661.29c0,121.74 98.69,220.42 220.43,220.42l661.29 -0c121.74,0 220.43,-98.69 220.43,-220.42l0 -661.29c0,-121.74 -98.69,-220.43 -220.43,-220.43l0 0zm110.22 826.61c0,91.31 -74.02,165.33 -165.33,165.33l-551.07 0c-91.3,0 -165.32,-74.02 -165.32,-165.33l0 -551.07c0,-91.3 74.02,-165.33 165.32,-165.33l551.07 0c91.31,0 165.33,74.02 165.33,165.33l0 551.07z"/>
   <g>
    <polygon id="line" class="fil1" points="798.62,517.33 798.62,798.62 303.53,798.62 303.53,303.63 584.82,303.63 584.82,349.17 349.08,349.17 349.08,753.08 753.08,753.08 753.08,517.33 "/>
    <polygon id="arrow" class="fil1" points="469.08,633.08 469.08,476.82 514.62,476.82 514.62,555.33 766.42,303.53 798.62,335.73 546.82,587.53 625.34,587.53 625.34,633.08 "/>
   </g>
  </g>
 </g>
</svg>
