0
SECTION
2
HEADER
9
$ACADVER
1
AC1015
9
$INSUNITS
70
4
0
ENDSEC
0
SECTION
2
TABLES
0
TABLE
2
LTYPE
70
1
0
LTYPE
2
CONTINUOUS
70
64
3
Solid line
72
65
73
0
40
0.0
0
ENDTAB
0
TABLE
2
STYLE
70
1
0
STYLE
2
STANDARD
70
0
40
0.0
41
1.0
50
0.0
71
0
42
2.5
3
txt
4

0
ENDTAB
0
TABLE
2
LAYER
70
8
0
LAYER
2
0
70
0
62
7
6
CONTINUOUS
0
LAYER
2
PLATE
70
0
62
7
6
CONTINUOUS
0
LAYER
2
HOLES
70
0
62
3
6
CONTINUOUS
0
LAYER
2
DIM
70
0
62
1
6
CONTINUOUS
0
LAYER
2
TEXT
70
0
62
2
6
CONTINUOUS
0
LAYER
2
SOLID_TEST
70
0
62
6
6
CONTINUOUS
0
LAYER
2
HATCH_TEST
70
0
62
4
6
CONTINUOUS
0
LAYER
2
MTEXT_TEST
70
0
62
5
6
CONTINUOUS
0
ENDTAB
0
ENDSEC
0
SECTION
2
ENTITIES
0
HATCH
100
AcDbEntity
8
HATCH_TEST
100
AcDbHatch
10
0.0
20
0.0
30
0.0
210
0.0
220
0.0
230
1.0
2
SOLID
70
1
71
0
91
1
92
7
72
0
73
1
93
4
10
145
20
10
10
165
20
10
10
165
20
20
10
145
20
20
97
0
75
0
76
1
98
0
0
HATCH
100
AcDbEntity
8
HATCH_TEST
100
AcDbHatch
10
0.0
20
0.0
30
0.0
210
0.0
220
0.0
230
1.0
2
SOLID
70
1
71
0
91
1
92
7
72
0
73
1
93
4
10
145
20
25
10
165
20
25
10
155
20
40
10
145
20
40
97
0
75
0
76
1
98
0
0
HATCH
100
AcDbEntity
8
HATCH_TEST
100
AcDbHatch
10
0.0
20
0.0
30
0.0
210
0.0
220
0.0
230
1.0
2
SOLID
70
1
71
0
91
1
92
7
72
0
73
1
93
4
10
145
20
45
10
165
20
45
10
165
20
60
10
145
20
60
97
0
75
0
76
1
98
0
0
LINE
8
PLATE
10
5.0
20
0
30
0.0
11
115.0
21
0
31
0.0
0
LINE
8
PLATE
10
120.0
20
5.0
30
0.0
11
120.0
21
75.0
31
0.0
0
LINE
8
PLATE
10
115.0
20
80.0
30
0.0
11
5.0
21
80.0
31
0.0
0
LINE
8
PLATE
10
0
20
75.0
30
0.0
11
0
21
5.0
31
0.0
0
ARC
8
PLATE
10
5.0
20
5.0
30
0.0
40
5.0
50
180
51
270
0
ARC
8
PLATE
10
115.0
20
5.0
30
0.0
40
5.0
50
270
51
0
0
ARC
8
PLATE
10
115.0
20
75.0
30
0.0
40
5.0
50
0
51
90
0
ARC
8
PLATE
10
5.0
20
75.0
30
0.0
40
5.0
50
90
51
180
0
CIRCLE
8
HOLES
10
10
20
10
30
0.0
40
2
0
CIRCLE
8
HOLES
10
110
20
10
30
0.0
40
2
0
CIRCLE
8
HOLES
10
110
20
70
30
0.0
40
2
0
CIRCLE
8
HOLES
10
10
20
70
30
0.0
40
2
0
LINE
8
DIM
10
0
20
0
30
0.0
11
0
21
-12
31
0.0
0
LINE
8
DIM
10
120.0
20
0
30
0.0
11
120.0
21
-12
31
0.0
0
LINE
8
DIM
10
0
20
-10
30
0.0
11
120.0
21
-10
31
0.0
0
SOLID
8
DIM
10
0
20
-10
30
0.0
11
2
21
-9
31
0.0
12
2
22
-11
32
0.0
13
2
23
-11
33
0.0
0
SOLID
8
DIM
10
120.0
20
-10
30
0.0
11
118.0
21
-9
31
0.0
12
118.0
22
-11
32
0.0
13
118.0
23
-11
33
0.0
0
TEXT
8
TEXT
10
55.0
20
-8
30
0.0
40
3.5
1
120
50
0.0
7
STANDARD
0
LINE
8
DIM
10
120.0
20
0
30
0.0
11
132.0
21
0
31
0.0
0
LINE
8
DIM
10
120.0
20
80.0
30
0.0
11
132.0
21
80.0
31
0.0
0
LINE
8
DIM
10
130.0
20
0
30
0.0
11
130.0
21
80.0
31
0.0
0
SOLID
8
DIM
10
130.0
20
0
30
0.0
11
129.0
21
2
31
0.0
12
131.0
22
2
32
0.0
13
131.0
23
2
33
0.0
0
SOLID
8
DIM
10
130.0
20
80.0
30
0.0
11
129.0
21
78.0
31
0.0
12
131.0
22
78.0
32
0.0
13
131.0
23
78.0
33
0.0
0
TEXT
8
TEXT
10
133.0
20
38.0
30
0.0
40
3.5
1
80
50
90
7
STANDARD
0
TEXT
8
TEXT
10
6
20
86.0
30
0.0
40
2.8
1
PLACA 120 x 80 mm  R5
50
0.0
7
STANDARD
0
TEXT
8
TEXT
10
6
20
82.0
30
0.0
40
2.5
1
4X DIA 4
50
0.0
7
STANDARD
0
LINE
8
DIM
10
7.0
20
78.0
30
0.0
11
22
21
92.0
31
0.0
0
TEXT
8
TEXT
10
23
20
92.0
30
0.0
40
2.5
1
R5
50
0.0
7
STANDARD
0
SOLID
8
SOLID_TEST
10
145
20
10
30
0.0
11
165
21
10
31
0.0
12
165
22
20
32
0.0
13
145
23
20
33
0.0
0
SOLID
8
SOLID_TEST
10
145
20
25
30
0.0
11
165
21
25
31
0.0
12
155
22
40
32
0.0
13
145
23
40
33
0.0
0
SOLID
8
SOLID_TEST
10
145
20
45
30
0.0
11
165
21
45
31
0.0
12
165
22
60
32
0.0
13
145
23
60
33
0.0
0
MTEXT
100
AcDbEntity
8
MTEXT_TEST
100
AcDbMText
10
5
20
115
30
0.0
40
3.5
41
75
71
1
72
1
1
MTEXT TEST 1\PPlaca 120 x 80 mm\P4 taladros DIA 4 mm\PEsquinas R5
7
STANDARD
50
0
210
0.0
220
0.0
230
1.0
0
MTEXT
100
AcDbEntity
8
MTEXT_TEST
100
AcDbMText
10
145
20
82
30
0.0
40
3.0
41
45
71
1
72
1
1
MTEXT MULTILINE\PCon ancho definido\PY salto de linea
7
STANDARD
50
0
210
0.0
220
0.0
230
1.0
0
MTEXT
100
AcDbEntity
8
MTEXT_TEST
100
AcDbMText
10
185
20
60
30
0.0
40
3.0
41
50
71
1
72
1
1
MTEXT ROTADO 30 deg\Ppara probar transformaciones
7
STANDARD
50
30
210
0.0
220
0.0
230
1.0
0
MTEXT
100
AcDbEntity
8
MTEXT_TEST
100
AcDbMText
10
185
20
18
30
0.0
40
2.8
41
55
71
1
72
1
1
{\LSubrayado MTEXT}\P{\OOverline MTEXT}\PAltura normal
7
STANDARD
50
0
210
0.0
220
0.0
230
1.0
0
MTEXT
100
AcDbEntity
8
MTEXT_TEST
100
AcDbMText
10
60
20
40
30
0.0
40
4.0
41
60
71
5
72
1
1
MTEXT CENTRADO\PReferencia en centro
7
STANDARD
50
0
210
0.0
220
0.0
230
1.0
0
LINE
8
DIM
10
3
20
113
30
0.0
11
82
21
113
31
0.0
0
LINE
8
DIM
10
82
20
113
30
0.0
11
82
21
95
31
0.0
0
LINE
8
DIM
10
82
20
95
30
0.0
11
3
21
95
31
0.0
0
LINE
8
DIM
10
3
20
95
30
0.0
11
3
21
113
31
0.0
0
TEXT
8
TEXT
10
142
20
64
30
0.0
40
2.5
1
SOLID + HATCH TEST
50
0.0
7
STANDARD
0
TEXT
8
TEXT
10
142
20
5
30
0.0
40
2.5
1
MTEXT entities on layer MTEXT_TEST
50
0.0
7
STANDARD
0
ENDSEC
0
EOF
